<?xml version="1.0" standalone="no"?>
<!DOCTYPE svg PUBLIC "-//W3C//DTD SVG 20010904//EN"
 "http://www.w3.org/TR/2001/REC-SVG-20010904/DTD/svg10.dtd">
<svg version="1.0" xmlns="http://www.w3.org/2000/svg"
 width="225.000000pt" height="225.000000pt" viewBox="0 0 225.000000 225.000000"
 preserveAspectRatio="xMidYMid meet">
<metadata>
Created by potrace 1.11, written by Peter Selinger 2001-2013
</metadata>
<g transform="translate(0.000000,225.000000) scale(0.100000,-0.100000)"
fill="#000000" stroke="none">
<path d="M1071 1828 c-49 -14 -77 -35 -95 -72 -20 -43 -24 -181 -7 -221 8 -16
15 -43 17 -60 8 -61 74 -115 141 -115 26 0 40 10 82 61 28 33 51 69 51 80 0
10 4 19 9 19 5 0 15 23 21 52 11 45 11 53 -4 63 -11 9 -16 28 -16 67 0 48 -4
58 -32 85 -53 51 -96 62 -167 41z"/>
<path d="M1661 1810 c-29 -5 -58 -14 -62 -22 -13 -19 -11 -106 2 -114 6 -3 15
0 20 7 6 10 9 11 9 2 0 -29 20 -10 21 20 l2 32 6 -34 c5 -31 31 -57 31 -32 0
5 12 11 28 13 19 2 26 8 24 21 -2 9 2 17 8 17 6 0 8 -5 4 -11 -4 -7 2 -9 17
-7 20 2 25 10 27 41 3 34 1 37 -22 37 -14 0 -26 4 -26 9 0 11 39 3 58 -12 19
-15 15 -65 -8 -77 -19 -10 -18 -12 9 -69 15 -33 40 -74 54 -91 18 -20 27 -43
27 -65 0 -26 7 -39 31 -55 l30 -22 -20 -20 c-12 -10 -21 -25 -21 -33 0 -8 -7
-15 -16 -15 -8 0 -12 -5 -8 -11 4 -8 27 -9 68 -4 33 3 78 7 99 8 45 2 53 21
42 95 -13 89 -49 149 -163 266 -59 61 -111 114 -117 117 -19 12 -100 17 -154
9z m6 -62 c-3 -7 -5 -2 -5 12 0 14 2 19 5 13 2 -7 2 -19 0 -25z m-40 -20 c-3
-7 -5 -2 -5 12 0 14 2 19 5 13 2 -7 2 -19 0 -25z m244 -93 c5 3 6 -1 3 -10 -4
-10 -2 -14 7 -10 21 8 79 -50 78 -77 -1 -20 -2 -19 -11 8 -11 35 -47 62 -58
44 -4 -7 -17 4 -33 29 -29 43 -38 71 -11 33 8 -12 20 -20 25 -17z m-10 -50
l10 -20 -16 20 c-9 11 -21 29 -26 40 l-10 20 16 -20 c9 -11 21 -29 26 -40z"/>
<path d="M457 1712 c-91 -20 -110 -35 -168 -132 -58 -98 -96 -195 -110 -279
-11 -66 -10 -76 6 -104 18 -32 18 -32 -2 -14 -21 18 -33 14 -33 -14 0 -20 64
-79 87 -79 15 0 15 2 0 18 -10 10 -17 26 -17 36 0 9 -5 27 -11 38 -15 28 -13
107 5 157 13 39 93 171 103 171 5 0 -11 -27 -44 -75 -7 -11 -13 -40 -13 -65 0
-25 -5 -51 -12 -58 -8 -8 -8 -12 -1 -12 6 0 13 -21 16 -46 2 -25 15 -60 27
-76 14 -19 17 -29 9 -26 -21 7 -59 68 -59 94 0 13 -5 26 -11 29 -36 23 -11
-54 34 -102 23 -24 36 -31 62 -29 43 4 54 12 72 54 10 25 12 37 4 40 -7 2 -8
10 -2 20 5 9 10 81 13 159 3 128 2 142 -15 152 -10 7 -21 10 -25 7 -4 -2 -7
19 -8 47 -1 29 1 41 3 28 3 -14 16 -27 33 -34 16 -6 31 -19 34 -30 4 -15 12
-18 45 -16 22 2 44 -1 48 -6 4 -4 2 -5 -4 -1 -7 4 -13 2 -13 -4 0 -6 12 -10
28 -8 24 3 27 7 26 40 -1 21 3 35 7 32 5 -3 9 -13 9 -24 0 -29 30 -33 57 -9
12 13 23 26 23 30 0 4 -14 30 -31 58 -37 59 -43 60 -172 33z m166 -86 c3 -8 0
-21 -6 -30 -10 -14 -12 -12 -12 14 0 32 9 40 18 16z"/>
<path d="M396 1589 c20 -22 36 -25 28 -5 -3 8 -14 16 -26 19 -19 5 -19 5 -2
-14z"/>
<path d="M1822 1530 c-17 -45 -24 -76 -14 -62 7 11 10 9 15 -7 6 -24 63 -61
92 -60 14 0 16 2 5 6 -31 12 -50 37 -50 68 0 18 -9 43 -19 56 l-19 24 -10 -25z"/>
<path d="M1270 1473 c0 -9 -18 -38 -40 -64 -29 -35 -36 -49 -27 -56 23 -19 43
-21 68 -7 13 7 37 13 53 14 17 0 56 18 94 43 l64 42 -73 6 c-41 3 -89 13 -106
22 -31 17 -33 17 -33 0z"/>
<path d="M1807 1436 c-3 -7 -24 -16 -47 -19 -23 -3 -48 -11 -54 -17 -8 -9 -5
-10 14 -4 35 12 112 10 136 -5 16 -10 15 -10 -11 -4 -51 13 -117 5 -150 -18
l-30 -22 19 21 c21 24 16 28 -15 11 -12 -6 -18 -17 -15 -25 3 -8 -12 -27 -40
-48 l-45 -35 38 -8 c21 -4 70 -8 108 -8 55 0 77 5 106 22 37 23 64 67 53 85
-4 6 -1 14 6 18 8 5 -2 14 -29 26 -23 10 -36 21 -30 25 7 4 8 9 1 13 -5 3 -12
0 -15 -8z"/>
<path d="M1694 1418 c-13 -16 -14 -19 -3 -10 9 7 36 17 60 21 l44 9 -41 1
c-31 1 -46 -4 -60 -21z"/>
<path d="M1471 1410 c-24 -11 -59 -33 -77 -49 -23 -20 -48 -32 -81 -36 -81
-10 -91 -14 -129 -47 -33 -29 -36 -35 -30 -72 11 -78 22 -132 29 -143 13 -21
135 -83 162 -83 29 0 67 35 155 142 53 66 63 97 44 133 -18 34 -19 31 16 39
17 3 41 16 55 30 13 13 25 22 27 21 2 -2 4 9 5 25 2 24 -3 30 -38 44 -52 21
-84 20 -138 -4z"/>
<path d="M928 1357 c-26 -18 -48 -35 -48 -38 0 -10 41 -19 88 -19 33 0 48 5
62 22 17 21 17 22 -17 45 -19 13 -35 23 -36 22 -1 0 -23 -15 -49 -32z"/>
<path d="M710 1343 c-45 -7 -80 -25 -80 -40 0 -8 11 -28 25 -45 25 -29 37
-107 15 -93 -5 3 -15 3 -21 -1 -8 -4 -7 -9 2 -15 8 -4 14 -17 15 -28 1 -17 -7
-21 -55 -26 -31 -3 -76 -12 -101 -20 -42 -12 -130 -31 -174 -37 -11 -2 20 -22
75 -50 112 -57 150 -60 224 -20 38 20 51 34 56 57 6 26 7 27 8 6 0 -14 -6 -32
-14 -41 -14 -15 -11 -25 31 -99 45 -79 80 -117 143 -154 29 -17 30 -17 42 5
15 27 41 139 35 146 -3 2 3 16 14 29 24 31 16 57 -16 49 -17 -5 -24 -2 -24 8
0 15 -37 32 -47 22 -3 -3 -12 2 -20 10 -8 8 -18 12 -23 9 -5 -3 -11 -1 -15 5
-4 6 -11 8 -16 5 -5 -4 -12 1 -15 10 -7 17 -50 40 -70 36 -6 -1 -11 9 -11 23
0 23 0 23 18 5 40 -40 185 -100 276 -114 48 -8 108 18 142 60 17 23 19 36 14
93 -4 53 -11 73 -31 94 -36 40 -80 57 -143 57 -40 0 -71 7 -105 24 -51 26
-112 38 -154 30z"/>
<path d="M439 1303 c-27 -31 -30 -39 -16 -41 11 -2 17 -13 17 -32 0 -15 7 -33
15 -40 8 -6 13 -17 12 -22 -2 -9 35 -34 91 -64 7 -4 30 13 58 42 l45 49 -16
40 c-21 53 -89 105 -137 105 -29 0 -42 -7 -69 -37z"/>
<path d="M1095 1333 c-40 -4 -65 -18 -65 -34 0 -5 9 -9 20 -9 11 0 36 -6 55
-14 31 -13 36 -13 65 9 l32 24 -31 15 c-16 9 -31 15 -33 14 -2 -1 -21 -3 -43
-5z"/>
<path d="M2007 1309 c-10 -6 -41 -12 -68 -13 -36 -2 -75 -16 -137 -47 -124
-63 -126 -68 -43 -99 74 -27 99 -23 182 36 34 24 69 44 75 44 15 0 64 61 64
78 0 15 -49 15 -73 1z"/>
<path d="M1569 1255 c-3 -2 -3 -22 -1 -44 l4 -39 51 15 c29 8 61 20 72 26 19
10 18 11 -10 22 -34 14 -110 27 -116 20z"/>
<path d="M1956 1181 c-25 -22 -62 -45 -83 -51 -21 -7 -44 -17 -51 -23 -7 -5
-40 -11 -75 -12 -75 -4 -77 -4 -52 -15 71 -31 193 11 275 95 54 55 47 59 -14
6z"/>
<path d="M1640 1174 c-19 -7 -45 -13 -58 -13 -16 -1 -22 -6 -20 -18 2 -12 -4
-17 -21 -18 -17 0 -31 -10 -44 -34 -18 -30 -19 -39 -8 -96 11 -64 3 -115 -19
-115 -5 0 -10 -7 -10 -15 0 -8 -4 -15 -10 -15 -5 0 -10 5 -10 11 0 12 -49 -36
-51 -49 0 -4 -2 -17 -5 -29 -3 -18 0 -21 14 -16 14 5 15 3 5 -8 -7 -7 -13 -20
-13 -28 0 -14 1 -14 10 -1 18 28 10 -1 -15 -54 -13 -29 -27 -68 -29 -87 -3
-19 -12 -56 -20 -84 -9 -27 -16 -51 -16 -53 0 -11 82 43 99 64 27 35 29 43 37
196 3 73 10 126 15 122 5 -3 6 -10 3 -16 -4 -6 -1 -14 6 -18 9 -6 9 -13 1 -28
-6 -11 -11 -31 -11 -44 1 -21 5 -18 42 22 104 114 148 200 148 287 0 18 6 42
12 53 10 16 10 24 0 40 -14 24 -12 24 31 7 18 -8 45 -17 60 -21 46 -11 22 12
-26 25 -53 14 -73 29 -55 40 18 12 -1 9 -42 -7z m-5 -24 c-11 -5 -29 -8 -40
-8 -16 0 -15 2 5 8 34 11 60 11 35 0z"/>
<path d="M254 1118 c10 -7 31 -23 46 -35 21 -17 41 -23 80 -23 31 0 49 4 45
10 -3 6 -1 10 5 10 6 0 18 6 26 14 12 13 10 15 -14 20 -15 2 -67 7 -117 10
-74 5 -87 4 -71 -6z"/>
<path d="M1137 1013 c-22 -28 -60 -48 -112 -58 -39 -7 -40 -8 -15 -19 14 -6
32 -19 41 -30 32 -39 107 6 110 66 1 15 4 11 8 -12 5 -29 12 -36 41 -45 19 -5
41 -14 48 -18 17 -11 49 0 56 20 9 23 -17 48 -93 86 l-67 34 -17 -24z"/>
<path d="M1438 1018 c-12 -18 -14 -29 -7 -34 16 -10 31 11 27 37 l-3 23 -17
-26z"/>
<path d="M1380 960 c-17 -32 -12 -42 14 -25 13 9 37 15 53 13 19 -2 28 2 28
11 0 10 -13 16 -42 18 -33 2 -45 -1 -53 -17z"/>
<path d="M1430 919 c0 -18 2 -19 15 -9 15 12 12 30 -6 30 -5 0 -9 -10 -9 -21z"/>
<path d="M1390 897 c0 -13 -6 -29 -12 -36 -11 -10 -8 -12 12 -9 21 2 25 8 25
36 0 19 -5 32 -12 32 -7 0 -13 -10 -13 -23z"/>
<path d="M962 903 c-10 -4 -10 -8 -1 -19 6 -8 8 -14 4 -14 -4 0 -1 -8 6 -17
12 -15 12 -16 -5 -10 -17 7 -17 6 -5 -10 12 -15 12 -16 -2 -11 -22 8 -14 -24
10 -46 17 -15 18 -14 21 21 1 21 3 50 3 66 0 15 4 27 9 27 5 0 6 5 3 10 -7 11
-22 12 -43 3z"/>
<path d="M1058 848 c-34 -9 -38 -13 -38 -43 0 -18 8 -43 19 -56 l18 -23 56 18
55 17 -2 50 -1 49 -35 -1 c-19 -1 -52 -6 -72 -11z"/>
<path d="M1203 843 c-19 -4 -21 -10 -20 -59 1 -67 10 -73 93 -67 53 5 63 9 73
30 6 13 11 39 11 57 0 31 -3 34 -37 40 -40 6 -84 6 -120 -1z"/>
<path d="M927 743 c-4 -3 -7 -15 -7 -25 0 -12 -6 -18 -17 -16 -15 3 -19 -6
-21 -51 -4 -70 10 -103 58 -130 21 -12 40 -25 42 -29 2 -4 20 -18 42 -31 l38
-24 -4 39 c-10 80 -57 241 -76 261 -14 14 -44 17 -55 6z m5 -100 c9 -10 23
-34 33 -53 l17 -35 -33 30 c-48 42 -59 57 -53 66 8 14 19 11 36 -8z"/>
<path d="M1030 674 c0 -44 30 -68 91 -70 l49 -1 0 48 c0 27 -3 50 -7 50 -5 1
-36 2 -70 3 l-63 2 0 -32z"/>
<path d="M1196 652 c-6 -50 -4 -58 17 -80 46 -45 113 3 125 90 l5 41 -45 -7
c-25 -4 -56 -2 -70 3 -25 9 -26 8 -32 -47z"/>
<path d="M1066 564 c11 -50 33 -77 57 -70 12 3 31 6 42 6 15 0 16 3 7 12 -18
18 -15 28 8 28 13 0 18 5 13 16 -3 8 -11 13 -18 10 -13 -4 -65 6 -98 19 -16 7
-17 4 -11 -21z"/>
<path d="M1213 526 c-20 -12 -20 -13 19 -30 41 -17 88 -15 88 5 0 10 -61 40
-77 38 -4 -1 -18 -6 -30 -13z"/>
<path d="M1102 453 c5 -27 30 -36 63 -23 l30 12 -25 10 c-44 18 -72 19 -68 1z"/>
<path d="M1257 452 c-10 -2 -16 -9 -14 -15 6 -18 24 -19 31 -1 8 20 6 21 -17
16z"/>
</g>
</svg>
